<?xml version="1.0" encoding="UTF-8"?>
<svg id="Layer_1" data-name="Layer 1" xmlns="http://www.w3.org/2000/svg" viewBox="0 0 2404.01 586.42">
  <defs>
    <style>
      .cls-1 {
        fill: #f4bc00;
      }

      .cls-1, .cls-2, .cls-3 {
        stroke-width: 0px;
      }

      .cls-2 {
        fill: none;
      }

      .cls-3 {
        fill: #231f20;
      }
    </style>
  </defs>
  <path class="cls-3" d="M1015.11,225.13h-19.95c-4.43,0-7.23-2.22-8.4-6.65-.7-3.97-1.28-8.75-1.75-14.35h-51.45v179.55l10.15,1.75c1.17.23,2.1.47,2.8.7.93.23,1.75.35,2.45.35l2.1.35c6.07,1.4,9.1,5.02,9.1,10.85v20.65h-100.1v-20.65c0-5.83,2.92-9.45,8.75-10.85l2.1-.35c.7,0,1.4-.12,2.1-.35.93-.23,1.98-.47,3.15-.7l10.15-1.75v-179.9h-51.45c-.47,6.07-1.05,10.97-1.75,14.7-1.17,4.43-3.85,6.65-8.05,6.65h-20.3v-59.85h210.35v59.85ZM1245.34,386.83c5.84,1.4,8.75,5.02,8.75,10.85v20.65h-47.25c-4.43,0-7.93-.82-10.5-2.45-2.56-1.63-4.9-3.97-7-7l-53.2-81.2c-1.86-2.8-4.08-4.9-6.65-6.3-2.56-1.4-6.06-2.1-10.5-2.1h-17.85v64.4l10.5,1.75c1.17.23,2.1.47,2.8.7.94.23,1.75.35,2.45.35l2.1.35c5.84,1.4,8.75,5.02,8.75,10.85v20.65h-100.1v-20.65c0-5.83,2.92-9.45,8.75-10.85l2.1-.35,5.25-1.05,10.5-1.75v-183.75l-10.5-1.75c-1.17-.23-2.22-.47-3.15-.7-.7-.23-1.4-.35-2.1-.35l-2.1-.35c-5.83-1.4-8.75-5.02-8.75-10.85v-20.65h101.15c17.27,0,32.09,1.75,44.45,5.25,11.9,3.5,21.94,8.52,30.1,15.05,8.17,6.77,14,14.47,17.5,23.1,3.74,8.87,5.6,18.67,5.6,29.4,0,7.93-1.28,15.98-3.85,24.15-2.1,6.77-5.71,13.65-10.85,20.65-4.2,5.83-10.03,11.2-17.5,16.1-7.23,4.67-15.16,8.4-23.8,11.2,6.07,3.5,11.2,8.4,15.4,14.7l39.9,58.8,10.85,1.75c1.17.23,2.22.47,3.15.7,1.17.23,2.1.35,2.8.35l2.8.35ZM1151.19,282.18c6.54-2.1,12.02-5.13,16.45-9.1,3.97-3.73,7.12-8.4,9.45-14,2.1-5.37,3.15-11.2,3.15-17.5,0-12.83-4.2-22.75-12.6-29.75-8.16-6.77-21.11-10.15-38.85-10.15h-27.65v84h26.95c7.94,0,15.64-1.17,23.1-3.5ZM1528.34,185.93c0,5.83-2.91,9.45-8.75,10.85l-2.1.35c-.7,0-1.51.12-2.45.35-.7.23-1.63.47-2.8.7l-10.5,1.75v116.9c0,15.17-2.45,29.05-7.35,41.65-5.13,13.3-12.01,24.38-20.65,33.25-9.1,9.1-20.18,16.33-33.25,21.7-12.6,5.13-27.18,7.7-43.75,7.7s-31.15-2.57-43.75-7.7c-12.6-5.13-23.56-12.37-32.9-21.7-9.1-9.33-16.1-20.42-21-33.25-4.66-11.9-7-25.78-7-41.65v-116.9l-10.5-1.75c-1.16-.23-2.21-.47-3.15-.7-.7-.23-1.4-.35-2.1-.35l-2.1-.35c-5.83-1.4-8.75-5.02-8.75-10.85v-20.65h101.5v20.65c0,5.83-2.91,9.45-8.75,10.85l-2.45.35c-.7,0-1.51.12-2.45.35-.93.23-2.1.47-3.5.7l-10.85,1.75v116.55c0,10.5,1.29,19.25,3.85,26.25,2.34,7.47,6.19,14.23,11.55,20.3,4.44,5.13,10.39,9.33,17.85,12.6,6.77,3.03,14.94,4.55,24.5,4.55s17.74-1.52,24.5-4.55c7.94-3.5,14-7.7,18.2-12.6,4.44-5.13,8.17-11.78,11.2-19.95,2.8-8.87,4.2-17.62,4.2-26.25v-116.9l-10.85-1.75c-1.4-.23-2.56-.47-3.5-.7-.93-.23-1.75-.35-2.45-.35l-2.45-.35c-5.83-1.4-8.75-5.02-8.75-10.85v-20.65h101.5v20.65ZM1700.63,312.28c3.27,6.77,4.9,15.75,4.9,26.95s-1.98,21.35-5.95,31.85c-3.97,10.27-9.68,19.02-17.15,26.25-7.47,7.47-16.68,13.3-27.65,17.5-10.73,4.2-23.1,6.3-37.1,6.3h-5.25c-22.17,0-46.32-4.43-72.45-13.3v-65.1h19.95c4.43,0,7.12,2.1,8.05,6.3.7,3.03,1.75,12.72,3.15,29.05,9.8,3.03,25.78,4.55,47.95,4.55,13.3,0,23.68-3.15,31.15-9.45,7.23-6.3,10.85-15.4,10.85-27.3,0-6.53-1.63-12.02-4.9-16.45-3.03-4.2-7.47-7.7-13.3-10.5-5.83-3.03-12.02-5.48-18.55-7.35l-7.7-2.1-13.65-4.2c-7-2.33-14.12-5.13-21.35-8.4-6.53-3.03-12.83-7.35-18.9-12.95-5.6-5.13-9.92-11.67-12.95-19.6-3.5-8.63-5.25-18.32-5.25-29.05,0-9.57,1.87-18.55,5.6-26.95,3.5-8.87,8.87-16.68,16.1-23.45,6.77-6.3,15.4-11.67,25.9-16.1,10.27-4.2,22.05-6.3,35.35-6.3,24.5,0,48.65,4.78,72.45,14.35v64.75h-19.95c-4.2,0-6.88-2.22-8.05-6.65-.7-3.27-1.75-12.72-3.15-28.35-8.4-3.73-22.05-5.6-40.95-5.6-6.3,0-11.9.7-16.8,2.1-5.37,1.87-9.45,4.08-12.25,6.65-3.5,3.03-6.07,6.42-7.7,10.15-1.63,3.5-2.45,7.82-2.45,12.95,0,5.6,1.75,10.5,5.25,14.7s7.82,7.58,12.95,10.15c6.77,3.27,13.07,5.83,18.9,7.7,2.33.7,9.45,3.03,21.35,7,4.9,1.63,12.02,4.55,21.35,8.75,7,3.03,13.3,7.23,18.9,12.6,6.07,5.6,10.5,11.78,13.3,18.55ZM1926.34,225.13h-19.95c-4.43,0-7.23-2.22-8.4-6.65-.7-3.97-1.28-8.75-1.75-14.35h-51.45v179.55l10.15,1.75c1.17.23,2.1.47,2.8.7.93.23,1.75.35,2.45.35l2.1.35c6.07,1.4,9.1,5.02,9.1,10.85v20.65h-100.1v-20.65c0-5.83,2.92-9.45,8.75-10.85l2.1-.35c.7,0,1.4-.12,2.1-.35.93-.23,1.98-.47,3.15-.7l10.15-1.75v-179.9h-51.45c-.47,6.07-1.05,10.97-1.75,14.7-1.17,4.43-3.85,6.65-8.05,6.65h-20.3v-59.85h210.35v59.85Z"/>
  <path class="cls-1" d="M2283.78,391.38c4.43,1.63,6.65,4.67,6.65,9.1v17.85h-85.4v-17.85c0-3.97,2.33-7,7-9.1l7-2.8-14-38.15h-100.8l-14,38.15,7,2.8c4.67,2.1,7,5.13,7,9.1v17.85h-85.4v-17.85c0-3.97,2.33-7,7-9.1l19.25-8.05,85.4-218.05h48.3l85.75,218.05,19.25,8.05ZM2193.13,317.18l-29.05-78.75c-2.8-7.7-5.95-17.62-9.45-29.75l-3.15,10.85c-1.87,6.3-3.97,12.72-6.3,19.25l-28.7,78.4h76.65ZM2393.16,197.13c-.7,0-1.51.12-2.45.35-.7.23-1.63.47-2.8.7l-10.15,1.75v183.75l10.15,1.75c1.17.23,2.1.47,2.8.7.94.23,1.75.35,2.45.35l2.1.35c5.84,1.4,8.75,5.02,8.75,10.85v20.65h-100.1v-20.65c0-5.83,2.92-9.45,8.75-10.85l2.1-.35,5.25-1.05,10.5-1.75v-183.75l-10.5-1.75c-1.16-.23-2.21-.47-3.15-.7-.7-.23-1.4-.35-2.1-.35l-2.1-.35c-5.83-1.4-8.75-5.02-8.75-10.85v-20.65h100.1v20.65c0,5.83-2.91,9.45-8.75,10.85l-2.1.35Z"/>
  <rect class="cls-2" width="563.73" height="563.73"/>
  <ellipse class="cls-1" cx="399.93" cy="26.69" rx="10.33" ry="10.5"/>
  <ellipse class="cls-1" cx="366.81" cy="86.13" rx="10.33" ry="10.5"/>
  <ellipse class="cls-1" cx="295.12" cy="129.19" rx="10.33" ry="10.5"/>
  <ellipse class="cls-1" cx="247.13" cy="107.12" rx="10.33" ry="10.5"/>
  <ellipse class="cls-1" cx="167.59" cy="197.33" rx="10.33" ry="10.5"/>
  <ellipse class="cls-1" cx="217.84" cy="204.44" rx="10.33" ry="10.5"/>
  <ellipse class="cls-1" cx="269.26" cy="287.66" rx="10.33" ry="10.5"/>
  <ellipse class="cls-1" cx="313.38" cy="267.74" rx="10.33" ry="10.5"/>
  <ellipse class="cls-1" cx="320.02" cy="296.58" rx="10.33" ry="10.5"/>
  <ellipse class="cls-1" cx="291.79" cy="344.38" rx="10.33" ry="10.5"/>
  <ellipse class="cls-1" cx="284.17" cy="426.59" rx="10.33" ry="10.5"/>
  <ellipse class="cls-1" cx="279.95" cy="459.85" rx="10.33" ry="10.5"/>
  <ellipse class="cls-1" cx="393.05" cy="466.68" rx="10.33" ry="10.5"/>
  <ellipse class="cls-1" cx="444.77" cy="498.55" rx="10.33" ry="10.5"/>
  <ellipse class="cls-1" cx="433.12" cy="559.51" rx="10.33" ry="10.5"/>
  <ellipse class="cls-1" cx="447.2" cy="448.85" rx="10.33" ry="10.5"/>
  <ellipse class="cls-1" cx="335.04" cy="491.6" rx="10.33" ry="10.5"/>
  <ellipse class="cls-1" cx="347.04" cy="338.06" rx="10.33" ry="10.5"/>
  <ellipse class="cls-1" cx="517.4" cy="370.57" rx="10.33" ry="10.5"/>
  <ellipse class="cls-1" cx="514.48" cy="308.84" rx="10.33" ry="10.5"/>
  <ellipse class="cls-1" cx="541.96" cy="287.85" rx="10.33" ry="10.5"/>
  <ellipse class="cls-1" cx="554.65" cy="338.18" rx="10.33" ry="10.5"/>
  <ellipse class="cls-1" cx="582.38" cy="157.74" rx="10.33" ry="10.5"/>
  <ellipse class="cls-1" cx="548.4" cy="183.35" rx="10.33" ry="10.5"/>
  <ellipse class="cls-1" cx="620.72" cy="187.28" rx="10.33" ry="10.5"/>
  <ellipse class="cls-1" cx="427.93" cy="41.87" rx="10.33" ry="10.5"/>
  <path class="cls-1" d="M332,225.72h-84.35c-2.25,0-4.07-1.85-4.07-4.13v-39.03c0-2.28,1.82-4.13,4.07-4.13h84.35c2.25,0,4.07,1.85,4.07,4.13v39.03c0,2.28-1.82,4.13-4.07,4.13ZM255.55,217.69h68.55c2.25,0,4.07-1.85,4.07-4.13v-22.98c0-2.28-1.82-4.13-4.07-4.13h-68.55c-2.25,0-4.07,1.85-4.07,4.13v22.98c0,2.28,1.82,4.13,4.07,4.13Z"/>
  <path class="cls-1" d="M514.48,308.84h0c-2.18,0-3.95-1.8-3.95-4.01v-38.35c0-2.21,1.77-4.01,3.95-4.01h87.88c40.35,0,73.07-33.24,73.07-74.24v-3.61c0-41-32.71-74.24-73.07-74.24h-202.43c-2.18,0-3.95-1.8-3.95-4.01V30.71c0-2.21,1.77-4.01,3.95-4.01h0c2.18,0,3.95,1.8,3.95,4.01v67.63c0,2.21,1.77,4.01,3.95,4.01h194.53c44.72,0,80.97,36.83,80.97,82.26v3.61c0,45.43-36.25,82.26-80.97,82.26h-79.98c-2.18,0-3.95,1.8-3.95,4.01v30.33c0,2.21-1.77,4.01-3.95,4.01Z"/>
  <path class="cls-1" d="M601.62,292.62h-55.71c-2.18,0-3.95-1.8-3.95-4.01h0c0-2.21,1.77-4.01,3.95-4.01h55.7c51.08,0,92.49-42.07,92.49-93.97v-6.38c0-51.9-41.41-93.97-92.49-93.97h-173.68c-2.18,0-3.95-1.8-3.95-4.01v-40.39c0-2.21,1.77-4.01,3.95-4.01h0c2.18,0,3.95,1.8,3.95,4.01v32.36c0,2.21,1.77,4.01,3.95,4.01h165.78c55.44,0,100.39,45.66,100.39,102v6.38c0,56.33-44.95,101.99-100.39,101.99h0Z"/>
  <path class="cls-1" d="M271.41,291.67h-33c-53.45,0-96.94-43.82-96.94-97.7v-14.16c0-53.87,43.49-97.7,96.94-97.7h128.41v8.03h-128.41c-49.06,0-88.97,40.23-88.97,89.67v14.16c0,49.44,39.91,89.67,88.97,89.67h33v8.03h0Z"/>
  <path class="cls-1" d="M423.33,541.01h0c-31.33,0-56.73-25.81-56.73-57.64v-207.82c0-2.1-1.67-3.79-3.73-3.79h-47.21c-2.06,0-3.73-1.7-3.73-3.79v-.44c0-2.1,1.67-3.79,3.73-3.79h55.11c2.06,0,3.73,1.7,3.73,3.79v215.85c0,27.4,21.86,49.61,48.83,49.61h0c26.97,0,48.83-22.21,48.83-49.61v-237.73c0-2.1,1.67-3.79,3.73-3.79h127.74c28.1,0,50.89-23.15,50.89-51.7v-5.25c0-28.55-22.78-51.7-50.89-51.7h-234.17c-2.06,0-3.73-1.7-3.73-3.79v-14.48c0-2.1-1.67-3.79-3.73-3.79h-111.13c-2.06,0-3.73-1.7-3.73-3.79v-.44c0-2.1,1.67-3.79,3.73-3.79h119.03c2.06,0,3.73,1.7,3.73,3.79v14.48c0,2.1,1.67,3.79,3.73,3.79h226.27c32.47,0,58.79,26.74,58.79,59.73v5.25c0,32.99-26.32,59.73-58.79,59.73h-119.84c-2.06,0-3.73,1.7-3.73,3.79v229.69c0,31.83-25.4,57.64-56.73,57.64h-.01Z"/>
  <path class="cls-1" d="M430.21,510.55c-2.65,0-5.26-.56-7.75-1.71-7.6-3.48-12.91-12.03-12.91-20.8v-242.64c0-2.21,1.76-4.01,3.94-4.01h33.72c2.18,0,3.94,1.79,3.94,4.01v199.43c0,2.21-1.76,4.01-3.94,4.01h-.02c-2.18,0-3.94-1.79-3.94-4.01v-191.4c0-2.21-1.76-4.01-3.94-4.01h-17.92c-2.18,0-3.94,1.79-3.94,4.01v234.62c0,5.61,3.47,11.29,8.26,13.48,3.9,1.79,8.14,1.22,12.4-1.64,1.66-1.11,3.85-.85,5.17.66h0c1.59,1.83,1.22,4.66-.78,6-3.98,2.65-8.17,4-12.28,4h0Z"/>
  <path class="cls-1" d="M291.79,344.38h0c-2.18,0-3.95-1.79-3.95-4.01v-66.88c0-2.21-1.77-4.01-3.95-4.01h-55.86c-13.45,0-29.03-7.71-41.66-20.61-13.38-13.67-21.46-30.68-22.58-47.27-.16-2.32,1.68-4.28,3.97-4.26h0c2.05.01,3.78,1.62,3.91,3.7.99,14.68,8.26,29.86,20.31,42.17,11.18,11.43,24.66,18.25,36.06,18.25h63.76c2.18,0,3.95,1.79,3.95,4.01v74.91c0,2.21-1.77,4.01-3.95,4.01h0Z"/>
  <path class="cls-1" d="M357.38,246.49c0,2.21-1.77,4.01-3.95,4.01h-120.82c-16.52,0-48.68-21.51-48.68-60.93s25.42-64.4,50.01-64.4h60.16c2.18,0,3.95,1.8,3.95,4.01h0c0,2.21-1.77,4.01-3.95,4.01h-60.16c-20.7,0-42.11,21.09-42.11,56.38s29.55,52.9,40.78,52.9h112.92c2.18,0,3.95-1.8,3.95-4.01v-73.99c0-2.21-1.77-4.01-3.95-4.01h-93.18c-21.13,0-30.56,7.5-30.56,24.32v21.03c0,2.21-1.77,4.01-3.95,4.01h0c-2.18,0-3.95-1.8-3.95-4.01v-21.03c0-21.46,12.94-32.34,38.46-32.34h101.08c2.18,0,3.95,1.8,3.95,4.01v90.05h0Z"/>
  <path class="cls-1" d="M392.96,464.78h0c-2.18,0-3.95-1.8-3.95-4.01v-206.25c0-2.21-1.77-4.01-3.95-4.01h-15.81c-2.18,0-3.95-1.8-3.95-4.01v-88.75c0-2.21,1.77-4.01,3.95-4.01h209.19c2.18,0,3.95,1.8,3.95,4.01h0c0,2.21-1.77,4.01-3.95,4.01h-201.29c-2.18,0-3.95,1.8-3.95,4.01v72.7c0,2.21,1.77,4.01,3.95,4.01h15.81c2.18,0,3.95,1.8,3.95,4.01v214.27c0,2.21-1.77,4.01-3.95,4.01Z"/>
  <path class="cls-1" d="M319.86,430.6h-31.15c-2.18,0-3.95-1.8-3.95-4.01h0c0-2.21,1.77-4.01,3.95-4.01h23.25c2.18,0,3.95-1.8,3.95-4.01v-117.97c0-2.21,1.77-4.01,3.95-4.01h0c2.18,0,3.95,1.8,3.95,4.01v126c0,2.21-1.77,4.01-3.95,4.01Z"/>
  <path class="cls-1" d="M347.04,463.35h-59.91c-2.18,0-3.95-1.79-3.95-4.01h0c0-2.21,1.77-4.01,3.95-4.01h52.01c2.18,0,3.95-1.79,3.95-4.01v-109.25c0-2.21,1.77-4.01,3.95-4.01h0c2.18,0,3.95,1.79,3.95,4.01v117.27c0,2.21-1.77,4.01-3.95,4.01h0Z"/>
  <path class="cls-1" d="M427.24,586.42c-88.55,0-96.08-93.59-96.15-94.53l7.88-.57c.25,3.55,7.14,87.07,88.27,87.07s86.2-82.84,86.2-99.44v-106.74h7.9v106.74c0,17.94-4.54,107.46-94.1,107.46h0Z"/>
  <path class="cls-1" d="M610.39,225.21h-214.07c-2.18,0-3.95-1.79-3.95-4.01v-37.85c0-2.21,1.77-4.01,3.95-4.01h148.13c2.18,0,3.95,1.79,3.95,4.01h0c0,2.22-1.77,4.02-3.95,4.02h-140.23c-2.18,0-3.95,1.79-3.95,4.01v21.8c0,2.21,1.77,4.01,3.95,4.01h206.17c6.64,0,13.47-5.68,15.21-12.65.71-2.84.97-7.84-4.05-11.92-1.49-1.21-1.9-3.33-.99-5.03h0c1.17-2.19,4.01-2.79,5.92-1.23,6.22,5.06,8.74,12.33,6.78,20.16-2.62,10.49-12.67,18.71-22.87,18.71h0Z"/>
  <path class="cls-1" d="M433.1,559.43h0c-.52-2.09.68-4.22,2.71-4.83,34.38-10.25,54.76-37.43,54.76-73.38v-143.04c0-2.21,1.77-4.01,3.95-4.01h56.17c2.18,0,3.95,1.8,3.95,4.01h0c0,2.21-1.77,4.01-3.95,4.01h-48.27c-2.18,0-3.95,1.8-3.95,4.01v135.01c0,39.76-22.5,69.79-60.43,81.08-2.15.64-4.4-.66-4.95-2.87h0Z"/>
</svg>
